<?xml version="1.0" standalone="no"?>
<!DOCTYPE svg PUBLIC "-//W3C//DTD SVG 20010904//EN"
 "http://www.w3.org/TR/2001/REC-SVG-20010904/DTD/svg10.dtd">
<svg version="1.0" xmlns="http://www.w3.org/2000/svg"
 width="120.000000pt" height="32.000000pt" viewBox="0 0 120.000000 32.000000"
 preserveAspectRatio="xMidYMid meet">
<metadata>
Created by potrace 1.16, written by Peter Selinger 2001-2019
</metadata>
<g transform="translate(0.000000,32.000000) scale(0.100000,-0.100000)"
fill="#000000" stroke="none">
<path d="M105 275 c-45 -16 -80 -54 -89 -97 -8 -42 20 -104 59 -128 40 -25
116 -27 155 -3 27 15 30 15 54 0 37 -25 46 -20 12 7 -25 21 -27 26 -16 46 16
30 15 97 -2 117 -10 13 -8 19 17 39 33 26 23 33 -13 9 -19 -14 -25 -14 -49 -2
-46 24 -86 27 -128 12z m125 -33 c90 -68 36 -195 -82 -194 -51 1 -95 33 -109
82 -10 33 -9 43 7 72 38 66 124 84 184 40z"/>
<path d="M387 242 c-10 -10 -17 -26 -17 -35 0 -9 -4 -17 -10 -17 -5 0 -10 -7
-10 -15 0 -8 5 -15 10 -15 6 0 10 -30 10 -70 0 -68 1 -70 25 -70 24 0 25 2 25
70 0 56 3 70 15 70 8 0 15 7 15 15 0 8 -7 15 -15 15 -22 0 -18 28 5 35 35 11
40 -3 40 -106 0 -98 0 -100 23 -97 21 3 22 7 25 121 l3 117 -64 0 c-49 0 -68
-4 -80 -18z"/>
<path d="M578 179 c-10 -5 -18 -17 -18 -24 0 -18 41 -20 58 -3 9 9 15 9 23 1
17 -17 2 -33 -30 -33 -16 0 -36 -9 -47 -21 -17 -19 -17 -23 -3 -47 13 -25 21
-27 77 -28 l62 -2 0 62 c0 79 -17 106 -68 106 -20 0 -45 -5 -54 -11z"/>
<path d="M730 103 c0 -82 1 -84 23 -81 20 3 22 9 25 66 3 53 6 62 21 62 24 0
31 -19 31 -81 0 -42 3 -49 20 -49 17 0 20 7 20 49 0 62 7 81 31 81 15 0 18 -9
21 -62 3 -57 5 -63 26 -66 21 -3 22 0 22 63 0 82 -11 105 -50 105 -16 0 -32
-5 -35 -10 -4 -7 -11 -8 -18 -1 -7 5 -40 9 -74 9 l-63 0 0 -85z"/>
<path d="M1017 172 c-10 -10 -17 -22 -17 -25 0 -12 45 -8 58 5 9 9 15 9 23 1
17 -17 2 -33 -30 -33 -34 0 -51 -17 -51 -51 0 -36 13 -43 83 -45 l57 -3 0 68
c0 53 -4 72 -18 84 -25 23 -85 22 -105 -1z"/>
</g>
</svg>
