<?xml version="1.0" standalone="no"?>
<!DOCTYPE svg PUBLIC "-//W3C//DTD SVG 20010904//EN"
 "http://www.w3.org/TR/2001/REC-SVG-20010904/DTD/svg10.dtd">
<svg version="1.0" xmlns="http://www.w3.org/2000/svg"
 width="300.000000pt" height="300.000000pt" viewBox="0 0 300.000000 300.000000"
 preserveAspectRatio="xMidYMid meet">
<metadata>
Created by potrace 1.16, written by Peter Selinger 2001-2019
</metadata>
<g transform="translate(0.000000,300.000000) scale(0.100000,-0.100000)"
fill="#000000" stroke="none">
<path d="M2120 2755 c-74 -58 -142 -105 -152 -105 -9 0 -29 11 -45 23 -35 30
-80 52 -163 82 -196 72 -444 55 -633 -41 -101 -52 -245 -196 -299 -300 -63
-121 -73 -165 -73 -304 1 -138 19 -215 78 -315 73 -125 196 -240 319 -300 117
-57 183 -70 343 -70 194 0 253 17 445 128 l46 26 133 -104 134 -105 26 19 c29
21 50 45 68 78 12 21 8 26 -45 70 -32 26 -90 73 -130 103 -39 30 -71 59 -72
63 0 5 12 24 27 43 64 85 113 242 113 364 0 124 -48 277 -116 367 -13 17 -24
35 -24 40 1 4 59 53 130 107 72 55 130 105 130 111 0 7 -11 24 -24 38 -13 14
-33 39 -45 56 -12 17 -25 31 -29 31 -4 0 -68 -47 -142 -105z m-538 -200 c155
-32 291 -127 350 -245 15 -30 35 -88 44 -127 15 -67 15 -79 0 -145 -45 -202
-185 -331 -403 -374 -77 -16 -89 -16 -165 0 -219 43 -359 172 -404 374 -15 66
-15 78 0 145 34 150 115 256 248 321 69 34 171 63 230 65 15 1 60 -6 100 -14z"/>
<path d="M325 1091 c-100 -25 -156 -90 -165 -196 l-5 -60 -43 -3 -42 -3 0 -65
0 -64 45 0 45 0 0 -240 0 -240 90 0 90 0 0 240 0 240 55 0 55 0 0 49 c0 27 3
56 6 65 5 14 -3 16 -55 16 l-61 0 0 33 c0 18 7 42 15 54 20 28 82 45 134 37
l41 -7 0 -363 0 -364 90 0 90 0 0 434 0 433 -82 6 c-105 9 -264 7 -303 -2z"/>
<path d="M1005 834 c-112 -29 -185 -95 -185 -169 0 -25 1 -25 85 -25 81 0 86
1 95 24 28 76 131 53 134 -30 l1 -39 -90 -6 c-165 -11 -239 -71 -240 -194 0
-79 32 -132 100 -165 65 -31 158 -26 208 13 l35 26 6 -24 c6 -24 9 -25 100
-25 l94 0 -14 47 c-10 32 -14 100 -14 225 0 227 -15 269 -114 320 -38 20 -158
33 -201 22z m135 -394 c0 -36 -5 -55 -20 -70 -42 -42 -115 -38 -127 8 -18 68
20 112 98 112 l49 0 0 -50z"/>
<path d="M1707 830 c-16 -5 -43 -20 -62 -34 -42 -33 -45 -32 -45 4 l0 30 -85
0 -85 0 0 -305 0 -305 90 0 90 0 0 213 c0 210 0 214 23 235 26 25 100 31 114
10 4 -7 10 -112 13 -233 l5 -220 93 -3 92 -3 0 216 c0 202 1 216 20 235 26 26
90 27 113 2 15 -16 17 -48 17 -235 l0 -217 96 0 96 0 -4 238 c-3 231 -4 239
-28 287 -55 108 -202 127 -299 40 l-38 -35 -14 27 c-27 50 -125 76 -202 53z"/>
<path d="M2555 831 c-42 -11 -107 -46 -127 -68 -20 -22 -48 -85 -48 -108 0
-12 16 -15 90 -15 88 0 90 1 96 25 7 29 31 45 68 45 39 0 66 -33 66 -80 l0
-40 -68 0 c-120 0 -211 -41 -247 -111 -19 -36 -19 -132 -1 -167 33 -63 102
-102 181 -102 58 0 85 9 121 41 20 19 21 19 32 -6 11 -24 15 -25 103 -25 83 0
90 2 83 17 -4 10 -10 115 -14 235 l-6 216 -30 48 c-40 65 -100 96 -197 100
-40 2 -85 0 -102 -5z m145 -395 c0 -47 -4 -57 -26 -75 -55 -43 -124 -17 -124
46 0 53 36 83 100 83 l50 0 0 -54z"/>
</g>
</svg>
