<?xml version="1.0" standalone="no"?>
<!DOCTYPE svg PUBLIC "-//W3C//DTD SVG 20010904//EN"
 "http://www.w3.org/TR/2001/REC-SVG-20010904/DTD/svg10.dtd">
<svg version="1.0" xmlns="http://www.w3.org/2000/svg"
 width="960.000000pt" height="720.000000pt" viewBox="0 0 960.000000 720.000000"
 preserveAspectRatio="xMidYMid meet">
<metadata>
Created by potrace 1.16, written by Peter Selinger 2001-2019
</metadata>
<g transform="translate(0.000000,720.000000) scale(0.100000,-0.100000)"
fill="#000000" stroke="none">
<path d="M5613 7130 c-371 -67 -559 -472 -358 -770 l34 -51 -130 -95 c-125
-93 -129 -97 -113 -115 9 -11 21 -19 26 -19 5 0 61 39 125 86 63 47 121 88
129 91 7 3 31 -8 51 -25 305 -240 787 -76 873 297 16 66 8 187 -15 256 -39
115 -145 234 -260 292 -97 50 -253 72 -362 53z m215 -85 c216 -51 365 -238
349 -440 -13 -175 -115 -305 -295 -376 -81 -33 -252 -33 -332 -1 -132 52 -210
125 -267 249 -35 76 -38 210 -6 289 85 214 320 333 551 279z"/>
<path d="M4390 5640 l-144 -108 -58 44 c-138 107 -304 145 -473 109 -106 -23
-188 -67 -270 -149 -163 -161 -198 -366 -98 -565 21 -42 39 -79 41 -83 2 -3
-45 -43 -103 -88 -102 -79 -105 -83 -89 -101 9 -11 21 -19 26 -19 5 0 55 36
111 79 l101 80 46 -35 c71 -55 175 -102 256 -116 l74 -12 0 -138 0 -138 30 0
30 0 0 138 0 137 78 17 c193 39 352 174 407 343 41 125 20 314 -45 405 -12 17
-20 36 -17 43 2 7 66 57 140 112 75 55 137 105 137 111 0 6 -8 18 -18 27 -16
15 -27 8 -162 -93z m-449 -34 c79 -17 135 -44 204 -98 55 -43 70 -63 117 -158
30 -59 33 -74 33 -155 0 -61 -6 -107 -18 -142 -84 -241 -399 -362 -644 -248
-166 76 -256 213 -257 385 0 134 53 239 162 326 114 89 256 121 403 90z"/>
<path d="M1670 4095 c-94 -21 -177 -66 -253 -136 -266 -243 -202 -645 130
-813 185 -93 428 -68 598 63 l50 38 65 -51 c36 -29 81 -64 101 -79 l36 -27 17
24 c16 25 16 25 -79 98 -52 40 -94 76 -95 81 0 4 11 25 25 45 61 92 90 255 65
363 -7 30 -30 87 -51 127 -22 41 -37 77 -35 81 2 3 45 38 95 76 50 39 91 73
91 76 0 4 -8 16 -17 27 -18 21 -19 20 -118 -58 l-99 -79 -46 35 c-135 103
-320 145 -480 109z m231 -79 c141 -30 254 -117 316 -244 36 -72 38 -81 37
-171 0 -116 -23 -181 -86 -258 -253 -301 -760 -185 -829 190 -23 125 20 258
115 353 66 66 126 100 217 124 89 23 142 24 230 6z"/>
<path d="M4862 3989 c-174 -31 -272 -143 -272 -311 l0 -58 -65 0 -66 0 3 -92
3 -93 63 -3 62 -3 0 -339 0 -340 130 0 130 0 0 340 0 340 85 0 85 0 0 95 0 94
-82 3 -83 3 2 42 c4 93 48 123 181 123 l92 0 0 -520 0 -520 135 0 135 0 0 614
0 613 -57 6 c-111 12 -429 16 -481 6z"/>
<path d="M5810 3617 c-118 -28 -195 -80 -234 -158 -14 -29 -26 -66 -26 -81 l0
-29 132 3 c124 3 133 4 136 23 8 40 42 65 89 65 25 0 53 -5 65 -11 25 -13 48
-67 48 -112 l0 -34 -112 -6 c-263 -15 -378 -102 -378 -287 0 -70 36 -147 88
-189 109 -86 266 -92 367 -15 l44 33 11 -35 12 -34 134 0 c74 0 134 3 134 8 0
4 -8 27 -16 52 -13 36 -18 105 -23 330 -6 266 -8 288 -28 326 -31 57 -91 108
-159 134 -73 27 -207 35 -284 17z m208 -547 c4 -76 -7 -100 -58 -129 -59 -33
-127 -24 -151 21 -15 28 -13 91 3 119 21 35 86 59 148 57 l55 -3 3 -65z"/>
<path d="M6860 3616 c-52 -13 -107 -45 -135 -76 -18 -20 -20 -20 -26 -3 -4 10
-8 33 -8 51 l-1 32 -125 0 -125 0 0 -435 0 -436 133 3 132 3 5 310 c3 171 7
311 8 313 15 18 76 42 109 42 102 0 103 -3 103 -370 l0 -300 135 0 135 0 0
301 c0 187 4 308 10 320 26 47 136 66 180 31 33 -27 39 -83 39 -384 l1 -268
130 0 130 0 0 313 c0 344 -7 398 -58 471 -43 62 -109 91 -207 91 -94 -1 -159
-25 -216 -82 l-37 -35 -48 50 c-40 41 -59 52 -102 61 -66 14 -104 13 -162 -3z"/>
<path d="M8090 3617 c-118 -28 -195 -80 -234 -158 -14 -29 -26 -66 -26 -81 l0
-29 132 3 c124 3 133 4 136 23 8 40 42 65 89 65 25 0 53 -5 65 -11 25 -13 48
-67 48 -112 l0 -34 -112 -6 c-263 -15 -378 -102 -378 -287 0 -70 36 -147 88
-189 109 -86 266 -92 367 -15 l44 33 11 -35 12 -34 134 0 c74 0 134 3 134 8 0
4 -8 27 -16 52 -13 36 -18 105 -23 330 -6 266 -8 288 -28 326 -31 57 -91 108
-159 134 -73 27 -207 35 -284 17z m208 -547 c4 -76 -7 -100 -58 -129 -59 -33
-127 -24 -151 21 -15 28 -13 91 3 119 21 35 86 59 148 57 l55 -3 3 -65z"/>
<path d="M3810 2660 l0 -139 -37 -6 c-21 -4 -51 -9 -68 -12 -64 -12 -139 -47
-202 -95 l-66 -49 -38 28 c-21 15 -72 55 -115 88 l-77 59 -18 -23 -19 -23 78
-62 c43 -33 94 -73 113 -88 l34 -26 -18 -29 c-64 -100 -93 -207 -84 -313 22
-262 261 -470 542 -470 136 0 256 43 365 132 33 26 63 48 66 48 3 0 61 -39
130 -86 68 -47 128 -82 134 -79 5 3 14 14 19 24 9 15 -9 30 -120 106 -71 48
-128 91 -126 94 23 43 57 127 67 170 16 70 8 189 -18 264 -43 119 -151 235
-275 292 -45 22 -79 31 -184 51 -23 4 -23 7 -23 144 l0 140 -30 0 -30 0 0
-140z m138 -235 c92 -22 159 -60 227 -129 70 -71 103 -132 118 -222 37 -215
-107 -418 -338 -479 -256 -66 -525 93 -575 340 -61 299 247 565 568 490z"/>
<path d="M5700 1145 c-86 -20 -173 -64 -238 -121 l-54 -47 -96 66 c-94 65 -97
66 -114 47 -10 -11 -18 -21 -18 -24 0 -2 42 -34 94 -70 l94 -66 -34 -67 c-175
-346 111 -742 521 -720 305 16 532 253 512 536 -15 215 -161 391 -377 455 -80
24 -212 29 -290 11z m215 -76 c147 -27 269 -118 332 -247 35 -71 38 -82 38
-166 0 -62 -6 -108 -18 -143 -87 -250 -414 -366 -667 -238 -191 97 -284 322
-212 513 78 203 302 323 527 281z"/>
</g>
</svg>
